<svg width="1593" height="1016" viewBox="0 0 1593 1016" fill="none" xmlns="http://www.w3.org/2000/svg">
<path d="M1477.53 613.88C1414.9 613.88 1375.94 570.724 1375.94 506.564C1375.94 442.404 1414.9 399.63 1477.53 399.63C1540.16 399.63 1579.5 442.404 1579.5 506.564C1579.5 570.724 1540.16 613.88 1477.53 613.88ZM1477.91 569.96C1506.94 569.96 1521.83 542.845 1521.83 506.564C1521.83 469.901 1506.94 442.786 1477.91 442.786C1448.51 442.786 1433.23 469.901 1433.23 506.564C1433.23 542.845 1448.51 569.96 1477.91 569.96Z" fill="black"/>
<path d="M1238.46 609.679V402.304H1293.07V438.203H1295.36C1303 412.615 1322.09 399.249 1345.39 399.249C1351.12 399.249 1358.38 400.012 1363.34 401.158V451.57C1357.99 450.042 1347.3 448.514 1339.28 448.514C1313.69 448.514 1294.98 466.464 1294.98 491.67V609.679H1238.46Z" fill="black"/>
<path d="M1000.53 687.587V402.304H1056.29V437.057H1058.58C1066.22 420.253 1083.02 399.63 1117.78 399.63C1163.6 399.63 1201.79 435.148 1201.79 506.182C1201.79 575.307 1165.13 613.116 1117.78 613.116C1083.79 613.116 1066.6 593.639 1058.58 576.453H1057.05V687.587H1000.53ZM1055.91 505.8C1055.91 543.227 1071.95 568.051 1099.83 568.051C1128.85 568.051 1144.13 542.463 1144.13 505.8C1144.13 469.519 1128.85 444.695 1099.83 444.695C1071.56 444.695 1055.91 468.373 1055.91 505.8Z" fill="black"/>
<path d="M863.044 613.88C800.411 613.88 761.457 570.724 761.457 506.564C761.457 442.404 800.411 399.63 863.044 399.63C925.676 399.63 965.013 442.404 965.013 506.564C965.013 570.724 925.676 613.88 863.044 613.88ZM863.426 569.96C892.451 569.96 907.345 542.845 907.345 506.564C907.345 469.901 892.451 442.786 863.426 442.786C834.019 442.786 818.743 469.901 818.743 506.564C818.743 542.845 834.019 569.96 863.426 569.96Z" fill="black"/>
<path d="M592.655 489.76V609.679H536.133V402.304H589.981V438.585H592.273C601.82 414.525 623.971 399.63 654.523 399.63C697.679 399.63 726.322 429.037 725.94 477.539V609.679H669.8V487.469C669.8 461.881 655.669 446.605 632.373 446.605C608.695 446.605 592.655 462.263 592.655 489.76Z" fill="black"/>
<path d="M341.674 289H122.674C62.1989 289 13.1741 338.025 13.1741 398.5V617.5C13.1741 677.975 62.1989 727 122.674 727H341.674C402.149 727 451.174 677.975 451.174 617.5V398.5C451.174 338.025 402.149 289 341.674 289Z" fill="#0A0A0A"/>
<path d="M122.674 617.5V398.5H185.246V617.5H122.674Z" fill="white"/>
<path d="M185.245 398.5C286.924 398.5 341.674 461.071 341.674 562.75V617.5H279.103V562.75C279.103 508 247.817 461.071 185.245 461.071V398.5Z" fill="#A8A8A8"/>
</svg>
